# xmcd CD database file generated by OrangeCD 5.2
#
# Track frame offsets:
#	182
#	21300
#	39632
#	52942
#	71222
#	86840
#	100997
#	110735
#	130835
#	154255
#
# Disc length: 2305 seconds
#
# Revision: 19
# Processed by: cddbd v1.5.1PL2 Copyright (c) Steve Scherf et al.
# Submitted via: OrangeCD 5.2
#
DISCID=8c08ff0a
DTITLE=Various Artist - huH - CD 5
DYEAR=1995
DGENRE=Rock
TTITLE0=Big Head Todd and The Monsters - Wearing Only Flowers
TTITLE1=Babes In Toyland - Sweet '69
TTITLE2=Steve Forbert - It Sure Was Better Back Then
TTITLE3=Green Jelly - Jump
TTITLE4=L.A. Guns - Killing Machine
TTITLE5=The Jayhawks - Blue
TTITLE6=The Muffs - Sad Tomorrow
TTITLE7=Megadeth - A Tout Le Monde
TTITLE8=Filter - Hey Man, Nice Shot
TTITLE9=Senser - Age Of Panic (Git-O-Rama Mix)
EXTD=
EXTT0=
EXTT1=
EXTT2=
EXTT3=
EXTT4=
EXTT5=
EXTT6=
EXTT7=
EXTT8=
EXTT9=
PLAYORDER=
